<?xml version="1.0" encoding="utf-8"?>
<!-- Generator: Adobe Illustrator 24.3.0, SVG Export Plug-In . SVG Version: 6.00 Build 0)  -->
<svg version="1.1" id="Layer_1" xmlns="http://www.w3.org/2000/svg" xmlns:xlink="http://www.w3.org/1999/xlink" x="0px" y="0px"
	 viewBox="0 0 14.8 11" enable-background="new 0 0 14.8 11" xml:space="preserve">
<path fill="#222222" d="M10.5,6.5H2.7L0,0h14.8v2H12L10.5,6.5z M4.1,4.5h5L9.9,2H3L4.1,4.5z"/>
<path fill="#222222" d="M10.6,9.6c0,0.8-0.7,1.4-1.5,1.4s-1.5-0.6-1.5-1.4s0.7-1.4,1.5-1.4S10.6,8.8,10.6,9.6"/>
<path fill="#222222" d="M5.4,9.6c0,0.8-0.7,1.4-1.5,1.4s-1.5-0.6-1.5-1.4s0.7-1.4,1.5-1.4S5.4,8.8,5.4,9.6"/>
</svg>
