<?xml version="1.0" encoding="utf-8"?>
<!-- Generator: Adobe Illustrator 24.3.0, SVG Export Plug-In . SVG Version: 6.00 Build 0)  -->
<svg version="1.1" id="Layer_1" xmlns="http://www.w3.org/2000/svg" xmlns:xlink="http://www.w3.org/1999/xlink" x="0px" y="0px"
	 viewBox="0 0 100 75" enable-background="new 0 0 100 75" xml:space="preserve">
<g>
	<path fill="#222222" d="M5.696,32.702C4.056,31.281,2.792,29.32,1.9,26.82c-0.893-2.5-1.36-5.371-1.4-8.611
		c0.041-3.24,0.508-6.111,1.4-8.611c0.891-2.5,2.156-4.461,3.796-5.88c1.638-1.42,3.547-2.131,5.725-2.131s4.08,0.71,5.71,2.131
		c1.628,1.419,2.893,3.387,3.796,5.902c0.903,2.517,1.374,5.378,1.415,8.589c-0.042,3.21-0.513,6.074-1.415,8.589
		s-2.167,4.484-3.796,5.904c-1.629,1.42-3.532,2.129-5.71,2.129S7.334,34.122,5.696,32.702z M15.745,29.228
		c1.223-1.111,2.157-2.622,2.8-4.536c0.642-1.914,0.965-4.075,0.965-6.482s-0.323-4.568-0.965-6.482
		c-0.643-1.912-1.577-3.425-2.8-4.536c-1.224-1.111-2.666-1.667-4.325-1.667c-1.68,0-3.127,0.556-4.34,1.667
		c-1.214,1.111-2.142,2.624-2.785,4.536c-0.643,1.914-0.965,4.075-0.965,6.482s0.322,4.568,0.965,6.482s1.571,3.425,2.785,4.536
		c1.213,1.111,2.66,1.665,4.34,1.665C13.079,30.893,14.521,30.339,15.745,29.228z"/>
	<path fill="#222222" d="M27.475,33.998c-0.27-0.403-0.404-0.897-0.404-1.484V4.875c0-0.833,0.196-1.55,0.591-2.153
		c0.394-0.601,0.871-0.902,1.431-0.902h0.405c0.663,0,1.233,0.463,1.71,1.388l11.979,25.743V3.95c0-0.586,0.135-1.089,0.405-1.505
		c0.268-0.416,0.601-0.625,0.995-0.625S45.32,2.029,45.6,2.445c0.28,0.416,0.42,0.919,0.42,1.505v27.64
		c0,0.833-0.203,1.541-0.608,2.129c-0.404,0.588-0.886,0.878-1.446,0.878h-0.373c-0.333,0-0.643-0.113-0.934-0.347
		c-0.29-0.23-0.528-0.531-0.715-0.9L29.902,7.468v25.046c0,0.588-0.139,1.081-0.419,1.484c-0.281,0.399-0.618,0.599-1.012,0.599
		C28.076,34.597,27.745,34.397,27.475,33.998z"/>
	<path fill="#222222" d="M55.852,71.283c-1.639-1.42-2.904-3.382-3.796-5.881c-0.893-2.5-1.36-5.371-1.4-8.611
		c0.041-3.24,0.508-6.111,1.4-8.611c0.891-2.5,2.156-4.461,3.796-5.88c1.638-1.42,3.547-2.131,5.725-2.131s4.08,0.71,5.71,2.131
		c1.628,1.419,2.893,3.387,3.796,5.902c0.903,2.517,1.374,5.378,1.415,8.589c-0.042,3.21-0.513,6.074-1.415,8.589
		c-0.903,2.515-2.167,4.484-3.796,5.904c-1.629,1.42-3.532,2.129-5.71,2.129S57.49,72.704,55.852,71.283z M65.901,67.809
		c1.223-1.111,2.157-2.622,2.8-4.536c0.642-1.914,0.965-4.075,0.965-6.482s-0.323-4.568-0.965-6.482
		c-0.643-1.912-1.577-3.425-2.8-4.536c-1.224-1.111-2.666-1.667-4.325-1.667c-1.68,0-3.127,0.556-4.34,1.667
		c-1.214,1.111-2.142,2.624-2.785,4.536c-0.643,1.914-0.965,4.075-0.965,6.482s0.322,4.568,0.965,6.482
		c0.643,1.914,1.571,3.425,2.785,4.536c1.213,1.111,2.66,1.665,4.34,1.665C63.235,69.475,64.677,68.921,65.901,67.809z"/>
	<path fill="#222222" d="M77.631,72.58c-0.27-0.403-0.404-0.897-0.404-1.484V43.458c0-0.833,0.196-1.55,0.591-2.153
		c0.394-0.601,0.871-0.902,1.431-0.902h0.405c0.663,0,1.233,0.463,1.71,1.388l11.979,25.743V42.533c0-0.586,0.135-1.089,0.405-1.505
		c0.268-0.416,0.601-0.625,0.995-0.625c0.394,0,0.732,0.209,1.012,0.625s0.42,0.919,0.42,1.505v27.64
		c0,0.833-0.203,1.541-0.608,2.129c-0.404,0.588-0.886,0.878-1.446,0.878h-0.373c-0.333,0-0.643-0.113-0.934-0.347
		c-0.29-0.23-0.528-0.531-0.715-0.9L80.058,46.05v25.046c0,0.588-0.139,1.081-0.419,1.484c-0.281,0.399-0.618,0.599-1.012,0.599
		C78.232,73.179,77.901,72.98,77.631,72.58z"/>
	<path fill="#222222" d="M30.68,72.044c-1.141-0.908-1.976-2.087-2.504-3.54c-0.529-1.451-0.794-2.993-0.794-4.631
		c0-2.099,0.368-3.896,1.104-5.393c0.737-1.496,1.541-2.662,2.412-3.495c-0.623-1.111-1.094-2.178-1.415-3.195
		C29.161,50.772,29,49.6,29,48.272c0-1.481,0.233-2.839,0.7-4.075c0.466-1.234,1.141-2.214,2.022-2.939
		c0.881-0.725,1.914-1.089,3.097-1.089c1.389,0,2.769,0.68,4.137,2.038c0.144,0.122,0.276,0.316,0.387,0.578
		c0.116,0.262,0.172,0.531,0.172,0.81c0,0.431-0.104,0.81-0.309,1.134c-0.208,0.324-0.468,0.486-0.78,0.486
		c-0.166,0-0.352-0.077-0.56-0.232c-0.995-0.803-1.971-1.204-2.925-1.204c-1.038,0-1.851,0.426-2.442,1.273
		c-0.591,0.85-0.887,1.844-0.887,2.986c0,0.897,0.099,1.682,0.296,2.36c0.196,0.68,0.492,1.343,0.886,1.991
		c0.394,0.648,1.037,1.59,1.929,2.824l6.502,9.122c0.289-0.618,0.633-1.558,1.028-2.824c0.101-0.339,0.263-0.618,0.481-0.835
		c0.218-0.215,0.461-0.324,0.729-0.324c0.375,0,0.689,0.179,0.937,0.533c0.248,0.354,0.37,0.81,0.37,1.366
		c0,0.309-0.051,0.618-0.152,0.925c-0.415,1.328-0.917,2.594-1.494,3.798l2.081,2.961c0.167,0.219,0.294,0.433,0.375,0.648
		c0.086,0.219,0.127,0.494,0.127,0.833c0,0.527-0.116,0.976-0.344,1.345c-0.228,0.369-0.537,0.554-0.932,0.554
		c-0.375,0-0.694-0.185-0.967-0.554l-2.081-2.965c-0.894,1.111-1.879,1.993-2.957,2.641s-2.219,0.972-3.422,0.972
		C33.263,73.412,31.821,72.956,30.68,72.044z M39.546,67.254l-6.937-9.675c-0.706,0.678-1.308,1.558-1.805,2.639
		c-0.498,1.079-0.747,2.345-0.747,3.796c0,1.697,0.452,3.095,1.353,4.19c0.903,1.095,2.018,1.645,3.345,1.645
		C36.519,69.848,38.117,68.985,39.546,67.254z"/>
	<path fill="#222222" d="M98.343,34.597H53.948c-0.639,0-1.157-0.518-1.157-1.157l0,0c0-0.639,0.518-1.157,1.157-1.157h44.394
		c0.639,0,1.157,0.518,1.157,1.157l0,0C99.5,34.079,98.982,34.597,98.343,34.597z"/>
</g>
<g>
</g>
<g>
</g>
<g>
</g>
<g>
</g>
<g>
</g>
<g>
</g>
<g>
</g>
<g>
</g>
<g>
</g>
<g>
</g>
<g>
</g>
<g>
</g>
<g>
</g>
<g>
</g>
<g>
</g>
</svg>
