<?xml version="1.0" encoding="utf-8"?>
<!-- Generator: Adobe Illustrator 24.3.0, SVG Export Plug-In . SVG Version: 6.00 Build 0)  -->
<svg version="1.1" id="Layer_1" xmlns="http://www.w3.org/2000/svg" xmlns:xlink="http://www.w3.org/1999/xlink" x="0px" y="0px"
	 viewBox="0 0 100 100" enable-background="new 0 0 100 100" xml:space="preserve">
<path fill="#FFFFFF" stroke="#FFFFFF" stroke-width="0.5" stroke-miterlimit="10" d="M50,1.5c26.743,0,48.5,21.757,48.5,48.5
	S76.743,98.5,50,98.5S1.5,76.743,1.5,50S23.257,1.5,50,1.5 M50,0.5C22.662,0.5,0.5,22.662,0.5,50S22.662,99.5,50,99.5
	S99.5,77.338,99.5,50S77.338,0.5,50,0.5L50,0.5z"/>
<path fill="#FFFFFF" stroke="#FFFFFF" stroke-width="0.5" stroke-miterlimit="10" d="M50,19.768
	c16.67,0,30.232,13.562,30.232,30.232S66.67,80.232,50,80.232S19.768,66.67,19.768,50S33.33,19.768,50,19.768 M50,18.768
	c-17.249,0-31.232,13.983-31.232,31.232S32.751,81.232,50,81.232S81.232,67.249,81.232,50S67.249,18.768,50,18.768L50,18.768z"/>
<g>
	<g>
		<path fill="#FFFFFF" d="M13.424,46.18l-0.085,1.996c-0.04,0.926-0.203,1.59-0.49,1.991c-0.288,0.401-0.723,0.589-1.305,0.564
			c-0.393-0.017-0.715-0.132-0.967-0.346s-0.404-0.512-0.455-0.895l-0.046-0.002c-0.109,0.468-0.299,0.808-0.571,1.02
			c-0.271,0.211-0.631,0.307-1.079,0.288c-0.604-0.026-1.068-0.257-1.392-0.693c-0.324-0.437-0.47-1.03-0.438-1.781l0.104-2.429
			L13.424,46.18z M9.707,47.123l-2.13-0.091L7.527,48.2c-0.02,0.46,0.054,0.811,0.22,1.053c0.167,0.242,0.44,0.371,0.82,0.388
			c0.35,0.015,0.614-0.094,0.793-0.326c0.179-0.232,0.279-0.592,0.299-1.079L9.707,47.123z M10.599,47.161l-0.045,1.058
			c-0.02,0.46,0.039,0.799,0.175,1.017s0.38,0.334,0.729,0.349c0.316,0.013,0.549-0.091,0.7-0.313
			c0.151-0.223,0.237-0.582,0.258-1.079l0.041-0.952L10.599,47.161z"/>
		<path fill="#FFFFFF" d="M7.138,57.374l-0.462-3.779l6.681-0.817l0.462,3.779l-0.923,0.113l-0.329-2.688l-1.819,0.223l0.308,2.519
			l-0.914,0.111l-0.308-2.518l-2.098,0.256l0.329,2.688L7.138,57.374z"/>
		<path fill="#FFFFFF" d="M10.564,63.484c-0.576,0.163-1.086,0.084-1.532-0.239c-0.446-0.323-0.773-0.852-0.981-1.584
			c-0.208-0.731-0.265-1.363-0.169-1.895l1-0.284c-0.055,0.335-0.075,0.68-0.06,1.034c0.014,0.354,0.063,0.676,0.144,0.962
			c0.119,0.419,0.287,0.706,0.503,0.859c0.216,0.154,0.458,0.193,0.727,0.117c0.242-0.069,0.421-0.219,0.538-0.449
			c0.116-0.231,0.208-0.666,0.276-1.304c0.071-0.658,0.226-1.152,0.464-1.481c0.238-0.33,0.573-0.556,1.004-0.678
			c0.54-0.153,1.02-0.082,1.439,0.213c0.419,0.296,0.72,0.768,0.904,1.414c0.176,0.62,0.215,1.275,0.118,1.967l-0.959-0.092
			c0.079-0.644,0.054-1.192-0.075-1.644c-0.097-0.343-0.246-0.581-0.445-0.716c-0.2-0.135-0.422-0.168-0.667-0.099
			c-0.168,0.048-0.302,0.125-0.401,0.229c-0.1,0.104-0.179,0.253-0.24,0.446c-0.06,0.192-0.117,0.524-0.171,0.996
			c-0.063,0.531-0.148,0.933-0.257,1.202c-0.108,0.271-0.256,0.487-0.442,0.652C11.096,63.277,10.857,63.401,10.564,63.484z"/>
		<path fill="#FFFFFF" d="M10.768,68.673l-0.461-0.999l5.255-2.424l-0.83-1.798l0.857-0.396l2.12,4.595l-0.857,0.395l-0.829-1.797
			L10.768,68.673z"/>
		<path fill="#FFFFFF" d="M16.372,77.501l-0.687-0.86l4.523-3.609l-1.235-1.547l0.738-0.589l3.156,3.955l-0.738,0.589l-1.234-1.548
			L16.372,77.501z"/>
		<path fill="#FFFFFF" d="M21.999,79.622l-1.798,1.999l-0.818-0.736l4.501-5.004l1.414,1.271c0.646,0.581,1.015,1.132,1.107,1.653
			c0.093,0.521-0.081,1.025-0.52,1.514c-0.561,0.623-1.284,0.775-2.17,0.457l-0.578,3.486l-0.931-0.838l0.6-3.076L21.999,79.622z
			 M22.608,78.944l0.568,0.511c0.381,0.343,0.721,0.521,1.019,0.533s0.573-0.12,0.823-0.398c0.254-0.283,0.345-0.569,0.271-0.859
			c-0.074-0.289-0.297-0.602-0.669-0.936l-0.541-0.486L22.608,78.944z"/>
		<path fill="#FFFFFF" d="M28.708,87.92l0.418-1.941l-2.184-1.361l-1.547,1.237l-0.984-0.613l5.712-4.403l1.016,0.633l-1.438,7.067
			L28.708,87.92z M29.382,85.02l0.434-1.889c0.026-0.128,0.074-0.326,0.145-0.593c0.07-0.268,0.125-0.461,0.164-0.581
			c-0.27,0.276-0.591,0.563-0.964,0.858l-1.443,1.167L29.382,85.02z"/>
		<path fill="#FFFFFF" d="M37.996,84.747l1.06,0.426L34.36,90.54l-1.077-0.432l0.329-7.121l1.051,0.422l-0.256,4.406
			c-0.006,0.213-0.029,0.48-0.069,0.804c-0.041,0.322-0.078,0.56-0.112,0.711c0.124-0.201,0.282-0.429,0.473-0.683
			c0.191-0.254,0.339-0.439,0.442-0.557L37.996,84.747z"/>
		<path fill="#FFFFFF" d="M42.571,92.854l-3.717-0.824l1.458-6.571l3.717,0.825l-0.201,0.907l-2.643-0.586l-0.397,1.789l2.477,0.549
			l-0.199,0.899l-2.477-0.55l-0.458,2.063l2.643,0.586L42.571,92.854z"/>
		<path fill="#FFFFFF" d="M45.464,93.235l0.439-6.716l1.098,0.071l-0.377,5.774l2.843,0.187l-0.062,0.941L45.464,93.235z"/>
		<path fill="#FFFFFF" d="M59.452,92.457L55.7,93.104l-1.143-6.634l3.752-0.646l0.158,0.916L55.8,87.2l0.312,1.806l2.499-0.431
			l0.156,0.907l-2.499,0.431l0.358,2.082l2.667-0.459L59.452,92.457z"/>
		<path fill="#FFFFFF" d="M66.969,90.104l-1.196,0.414l-2.493-2.05l-0.705,3.157l-1.113,0.386l0.968-4.028l-3.035-2.379l1.157-0.4
			l2.304,1.896l0.638-2.915l1.122-0.389l-0.922,3.769L66.969,90.104z"/>
		<path fill="#FFFFFF" d="M70.813,82.775c0.339,0.615,0.397,1.198,0.175,1.748c-0.223,0.551-0.706,1.031-1.45,1.441l-0.613,0.338
			l1.216,2.205l-0.964,0.531l-3.249-5.896l1.698-0.935c0.736-0.406,1.371-0.56,1.903-0.461
			C70.063,81.847,70.49,82.189,70.813,82.775z M68.479,85.492l0.512-0.282c0.494-0.272,0.811-0.559,0.946-0.858
			c0.137-0.299,0.104-0.632-0.098-0.997c-0.187-0.339-0.429-0.534-0.728-0.587s-0.668,0.042-1.105,0.283l-0.67,0.368L68.479,85.492z
			"/>
		<path fill="#FFFFFF" d="M74.622,82.489l1.679,2.1l-0.859,0.688l-4.202-5.258l1.484-1.188c0.679-0.542,1.283-0.816,1.812-0.822
			c0.529-0.007,0.999,0.246,1.409,0.76c0.523,0.654,0.556,1.393,0.097,2.215l3.345,1.14l-0.978,0.782l-2.938-1.095L74.622,82.489z
			 M74.053,81.777l0.597-0.478c0.4-0.32,0.632-0.626,0.692-0.918c0.062-0.293-0.025-0.585-0.259-0.878
			c-0.238-0.297-0.506-0.433-0.803-0.407c-0.298,0.025-0.643,0.195-1.033,0.507l-0.568,0.454L74.053,81.777z"/>
		<path fill="#FFFFFF" d="M81.041,80.392l-4.868-4.648l0.76-0.796l4.868,4.648L81.041,80.392z"/>
		<path fill="#FFFFFF" d="M86.134,74.203l-2.269,3.058L78.46,73.25l2.269-3.058l0.747,0.555l-1.613,2.174l1.472,1.092l1.512-2.037
			l0.739,0.549l-1.512,2.037l1.697,1.259l1.613-2.174L86.134,74.203z"/>
		<path fill="#FFFFFF" d="M90.246,66.613l-0.595,1.21l-6.273,0.606l-0.017,0.033l0.279,0.111c0.531,0.213,1.009,0.424,1.433,0.632
			l3.141,1.543l-0.44,0.896l-6.041-2.968l0.589-1.198l6.244-0.609l0.013-0.025c-0.066-0.025-0.303-0.128-0.709-0.307
			c-0.405-0.179-0.721-0.323-0.943-0.433l-3.165-1.556l0.444-0.904L90.246,66.613z"/>
		<path fill="#FFFFFF" d="M86.447,59.127c-0.166,0.61-0.079,1.148,0.258,1.615c0.338,0.467,0.887,0.804,1.648,1.011
			c0.797,0.216,1.445,0.212,1.945-0.014s0.836-0.656,1.009-1.293c0.075-0.275,0.12-0.55,0.136-0.822
			c0.015-0.272,0.018-0.56,0.007-0.861l0.911,0.247c0.054,0.562-0.007,1.165-0.182,1.812c-0.259,0.95-0.744,1.603-1.459,1.955
			c-0.715,0.354-1.607,0.385-2.68,0.094c-0.676-0.184-1.233-0.468-1.673-0.853c-0.438-0.385-0.729-0.848-0.872-1.389
			s-0.128-1.128,0.043-1.759c0.18-0.663,0.485-1.238,0.917-1.726l0.78,0.622c-0.163,0.191-0.317,0.398-0.462,0.621
			S86.521,58.857,86.447,59.127z"/>
		<path fill="#FFFFFF" d="M93.423,52.383l-0.385,3.788l-6.696-0.68l0.385-3.788l0.925,0.094l-0.273,2.693l1.823,0.185l0.256-2.523
			l0.916,0.093l-0.256,2.524l2.103,0.213l0.273-2.693L93.423,52.383z"/>
		<path fill="#FFFFFF" d="M91.447,45.685c0.598-0.03,1.077,0.162,1.439,0.577s0.563,1.002,0.601,1.763
			c0.039,0.76-0.048,1.388-0.259,1.885l-1.039,0.052c0.128-0.313,0.226-0.645,0.29-0.994c0.065-0.349,0.091-0.672,0.076-0.97
			c-0.022-0.435-0.121-0.752-0.298-0.951c-0.176-0.198-0.403-0.291-0.682-0.276c-0.252,0.013-0.46,0.119-0.625,0.317
			c-0.165,0.199-0.353,0.602-0.562,1.208c-0.217,0.626-0.479,1.072-0.784,1.34c-0.307,0.268-0.684,0.413-1.131,0.435
			c-0.561,0.029-1.013-0.148-1.354-0.53c-0.342-0.382-0.53-0.909-0.564-1.581c-0.032-0.644,0.076-1.292,0.326-1.943l0.914,0.304
			c-0.221,0.61-0.319,1.15-0.296,1.619c0.019,0.355,0.109,0.622,0.273,0.797c0.164,0.176,0.373,0.258,0.628,0.245
			c0.175-0.009,0.322-0.053,0.442-0.133s0.231-0.207,0.333-0.381c0.103-0.174,0.232-0.485,0.391-0.933
			c0.181-0.504,0.354-0.875,0.521-1.114s0.358-0.417,0.576-0.536C90.883,45.768,91.144,45.7,91.447,45.685z"/>
	</g>
	<g>
		<path fill="#FFFFFF" d="M27.888,20.583l-0.902,0.787l-3.499-2.276c-0.152-0.1-0.364-0.25-0.636-0.45
			c-0.272-0.2-0.457-0.344-0.553-0.431c0.106,0.168,0.236,0.393,0.389,0.674c0.154,0.282,0.264,0.495,0.33,0.641l1.786,3.745
			L23.9,24.058l-2.87-1.969l-2.875-1.953l0.847-0.738l3.303,2.325c0.526,0.375,0.973,0.724,1.338,1.044
			c-0.146-0.219-0.299-0.472-0.46-0.759c-0.161-0.287-0.286-0.524-0.375-0.711l-1.757-3.684l0.823-0.717l3.442,2.24
			c0.321,0.205,0.766,0.542,1.333,1.012c-0.253-0.361-0.537-0.855-0.851-1.481l-1.849-3.579l0.84-0.732L27.888,20.583z"/>
		<path fill="#FFFFFF" d="M33.973,13.119c0.515,0.967,0.674,1.848,0.476,2.641c-0.198,0.794-0.74,1.427-1.625,1.898
			c-0.897,0.478-1.728,0.578-2.492,0.302c-0.764-0.276-1.408-0.905-1.93-1.885c-0.522-0.98-0.682-1.863-0.478-2.646
			c0.204-0.783,0.754-1.414,1.65-1.891c0.883-0.47,1.708-0.567,2.474-0.29C32.815,11.526,33.457,12.149,33.973,13.119z
			 M29.438,15.534c0.389,0.731,0.832,1.208,1.329,1.428s1.035,0.177,1.615-0.132c0.577-0.308,0.913-0.726,1.008-1.257
			c0.095-0.53-0.055-1.165-0.449-1.905c-0.388-0.729-0.828-1.204-1.319-1.425s-1.026-0.179-1.604,0.128
			c-0.582,0.311-0.921,0.733-1.018,1.267C28.904,14.173,29.05,14.805,29.438,15.534z"/>
		<path fill="#FFFFFF" d="M37.479,12.624l0.787,2.571l-1.052,0.322l-1.969-6.437l1.818-0.556c0.831-0.254,1.493-0.287,1.987-0.098
			c0.494,0.189,0.837,0.598,1.029,1.226c0.245,0.801,0.003,1.5-0.726,2.095l2.689,2.292l-1.198,0.366l-2.327-2.1L37.479,12.624z
			 M37.213,11.752l0.731-0.224c0.49-0.15,0.817-0.35,0.982-0.599c0.165-0.25,0.192-0.553,0.083-0.911
			c-0.111-0.364-0.311-0.589-0.597-0.675c-0.286-0.085-0.668-0.055-1.147,0.091l-0.695,0.213L37.213,11.752z"/>
		<path fill="#FFFFFF" d="M43.411,13.847l-0.896-6.671l1.091-0.146l0.771,5.735l2.824-0.379l0.125,0.936L43.411,13.847z"/>
		<path fill="#FFFFFF" d="M54.453,10.006c-0.043,1.11-0.383,1.947-1.021,2.511s-1.539,0.824-2.698,0.78l-1.882-0.072l0.256-6.726
			l2.08,0.079c1.07,0.041,1.893,0.361,2.465,0.96S54.492,8.96,54.453,10.006z M53.291,9.999c0.063-1.61-0.66-2.444-2.166-2.501
			l-0.953-0.037l-0.186,4.881l0.782,0.03C52.389,12.434,53.229,11.643,53.291,9.999z"/>
		<path fill="#FFFFFF" d="M61.976,15.191l-1.157-0.306l-0.076-4.173c-0.002-0.182,0.003-0.441,0.017-0.779
			c0.013-0.338,0.028-0.571,0.047-0.7c-0.08,0.182-0.193,0.416-0.341,0.701c-0.146,0.285-0.262,0.496-0.346,0.632l-2.1,3.578
			l-1.157-0.307l0.021-3.48l0.006-3.475l1.086,0.287l-0.074,4.038c-0.016,0.647-0.054,1.211-0.115,1.694
			c0.1-0.244,0.224-0.513,0.371-0.807c0.147-0.294,0.273-0.531,0.378-0.709l2.066-3.521l1.055,0.279l0.074,4.106
			c0.011,0.381-0.02,0.938-0.09,1.672c0.157-0.413,0.406-0.924,0.749-1.535l1.928-3.538l1.077,0.286L61.976,15.191z"/>
		<path fill="#FFFFFF" d="M64.808,16.399l2.81-6.116l1,0.459l-2.81,6.116L64.808,16.399z"/>
		<path fill="#FFFFFF" d="M74.294,17.919c-0.605,0.931-1.327,1.475-2.165,1.631c-0.838,0.156-1.742-0.083-2.715-0.715l-1.578-1.027
			l3.671-5.642l1.744,1.135c0.897,0.584,1.438,1.28,1.623,2.089C75.059,16.199,74.865,17.042,74.294,17.919z M73.302,17.317
			c0.879-1.351,0.687-2.437-0.576-3.259l-0.799-0.52l-2.664,4.094l0.656,0.427C71.276,18.944,72.404,18.696,73.302,17.317z"/>
		<path fill="#FFFFFF" d="M76.572,24.595l-2.78-2.6l4.597-4.917l2.781,2.601l-0.636,0.679l-1.977-1.849l-1.252,1.338l1.853,1.733
			l-0.629,0.672l-1.853-1.732l-1.443,1.543l1.978,1.849L76.572,24.595z"/>
	</g>
	<circle fill="#FFFFFF" cx="13.7" cy="33.736" r="1.179"/>
	<circle fill="#FFFFFF" cx="86.536" cy="34.679" r="1.179"/>
</g>
<g>
	<path fill="#FFFFFF" stroke="#FFFFFF" stroke-width="0.25" stroke-miterlimit="10" d="M54.114,57.246
		c-0.146,0-0.292-0.035-0.427-0.106l-3.727-1.96l-3.648,1.96c-0.311,0.163-0.681,0.136-0.964-0.069
		c-0.284-0.206-0.423-0.55-0.364-0.896l0.712-4.15l-2.991-2.864c-0.251-0.245-0.34-0.605-0.231-0.939
		c0.108-0.333,0.392-0.572,0.739-0.622l4.167-0.605l1.799-3.729c0.311-0.63,1.331-0.63,1.642,0l1.864,3.776l4.104,0.559
		c0.347,0.05,0.63,0.289,0.738,0.623s0.02,0.694-0.232,0.938L54.279,52.1l0.736,4.075c0.06,0.346-0.08,0.688-0.363,0.895
		C54.491,57.187,54.304,57.246,54.114,57.246z M43.526,48.564l2.893,2.818c0.216,0.213,0.314,0.516,0.263,0.813l-0.683,3.979
		l3.575-1.88c0.269-0.141,0.587-0.14,0.852,0l3.576,1.88l-0.684-3.98c-0.05-0.3,0.05-0.603,0.265-0.812l2.892-2.818l-3.997-0.581
		c-0.3-0.043-0.558-0.231-0.689-0.503l-1.813-3.672l-1.762,3.675c-0.133,0.271-0.391,0.458-0.689,0.5L43.526,48.564z"/>
</g>
<g>
	<path fill="#FFFFFF" d="M57.088,34.705L57.088,34.705c-0.252-0.112-0.366-0.408-0.253-0.66l1.627-3.654
		c0.112-0.252,0.408-0.366,0.66-0.253l0,0c0.252,0.112,0.366,0.408,0.253,0.66l-1.627,3.654
		C57.635,34.704,57.34,34.817,57.088,34.705z"/>
	<path fill="#FFFFFF" d="M62.787,38.923L62.787,38.923c-0.185-0.205-0.168-0.521,0.037-0.706l2.973-2.677
		c0.205-0.185,0.521-0.168,0.706,0.037l0,0c0.185,0.205,0.168,0.521-0.037,0.706l-2.973,2.677
		C63.288,39.144,62.971,39.128,62.787,38.923z"/>
	<path fill="#FFFFFF" d="M66.278,45.094L66.278,45.094c-0.085-0.263,0.058-0.545,0.321-0.63l3.804-1.236
		c0.263-0.085,0.545,0.058,0.63,0.321l0,0c0.085,0.263-0.058,0.545-0.321,0.63l-3.804,1.236
		C66.645,45.5,66.363,45.356,66.278,45.094z"/>
	<path fill="#FFFFFF" d="M66.957,52.151L66.957,52.151c0.029-0.275,0.275-0.474,0.55-0.445l3.978,0.418
		c0.275,0.029,0.474,0.275,0.445,0.55v0c-0.029,0.275-0.275,0.474-0.55,0.445l-3.978-0.418
		C67.127,52.672,66.928,52.426,66.957,52.151z"/>
	<path fill="#FFFFFF" d="M64.706,58.875L64.706,58.875c0.138-0.239,0.444-0.321,0.683-0.183l3.464,2
		c0.239,0.138,0.321,0.444,0.183,0.683l0,0c-0.138,0.239-0.444,0.321-0.683,0.183l-3.464-2C64.65,59.42,64.568,59.114,64.706,58.875
		z"/>
	<path fill="#FFFFFF" d="M59.916,64.102L59.916,64.102c0.223-0.162,0.536-0.113,0.698,0.111l2.351,3.236
		c0.162,0.223,0.113,0.536-0.111,0.698l0,0c-0.223,0.162-0.536,0.113-0.698-0.111L59.805,64.8
		C59.643,64.577,59.693,64.264,59.916,64.102z"/>
	<path fill="#FFFFFF" d="M53.414,66.928L53.414,66.928c0.27-0.057,0.536,0.115,0.593,0.385l0.832,3.913
		c0.057,0.27-0.115,0.536-0.385,0.593l0,0c-0.27,0.057-0.536-0.115-0.593-0.385l-0.832-3.913
		C52.971,67.251,53.144,66.986,53.414,66.928z"/>
	<path fill="#FFFFFF" d="M46.324,66.866L46.324,66.866c0.27,0.057,0.443,0.323,0.385,0.593l-0.832,3.913
		c-0.057,0.27-0.323,0.443-0.593,0.385l0,0c-0.27-0.057-0.443-0.323-0.385-0.593l0.832-3.913
		C45.788,66.981,46.054,66.809,46.324,66.866z"/>
	<path fill="#FFFFFF" d="M39.873,63.925L39.873,63.925c0.223,0.162,0.273,0.475,0.111,0.698l-2.351,3.236
		c-0.162,0.223-0.475,0.273-0.698,0.111l0,0c-0.223-0.162-0.273-0.475-0.111-0.698l2.351-3.236
		C39.336,63.813,39.649,63.763,39.873,63.925z"/>
	<path fill="#FFFFFF" d="M35.175,58.615L35.175,58.615c0.138,0.239,0.056,0.545-0.183,0.683l-3.464,2
		c-0.239,0.138-0.545,0.056-0.683-0.183h0c-0.138-0.239-0.056-0.545,0.183-0.683l3.464-2C34.731,58.294,35.037,58.376,35.175,58.615
		z"/>
	<path fill="#FFFFFF" d="M33.043,51.853L33.043,51.853c0.029,0.275-0.17,0.521-0.445,0.55L28.62,52.82
		c-0.275,0.029-0.521-0.17-0.55-0.445h0c-0.029-0.275,0.17-0.521,0.445-0.55l3.978-0.418C32.769,51.379,33.015,51.578,33.043,51.853
		z"/>
	<path fill="#FFFFFF" d="M33.847,44.808L33.847,44.808c-0.085,0.263-0.367,0.406-0.63,0.321l-3.804-1.236
		c-0.263-0.085-0.406-0.367-0.321-0.63l0,0c0.085-0.263,0.367-0.406,0.63-0.321l3.804,1.236
		C33.788,44.264,33.932,44.546,33.847,44.808z"/>
	<path fill="#FFFFFF" d="M37.445,38.7L37.445,38.7c-0.185,0.205-0.501,0.222-0.706,0.037l-2.973-2.677
		c-0.205-0.185-0.222-0.501-0.037-0.706v0c0.185-0.205,0.501-0.222,0.706-0.037l2.973,2.677C37.614,38.178,37.63,38.494,37.445,38.7
		z"/>
	<path fill="#FFFFFF" d="M43.218,34.583L43.218,34.583c-0.252,0.112-0.548-0.001-0.66-0.253l-1.627-3.654
		c-0.112-0.252,0.001-0.548,0.253-0.66h0c0.252-0.112,0.548,0.001,0.66,0.253l1.627,3.654C43.584,34.175,43.47,34.471,43.218,34.583
		z"/>
	<path fill="#FFFFFF" d="M50.166,33.17L50.166,33.17c-0.276,0-0.5-0.224-0.5-0.5v-4c0-0.276,0.224-0.5,0.5-0.5l0,0
		c0.276,0,0.5,0.224,0.5,0.5v4C50.666,32.946,50.442,33.17,50.166,33.17z"/>
</g>
<g>
</g>
<g>
</g>
<g>
</g>
<g>
</g>
<g>
</g>
<g>
</g>
<g>
</g>
<g>
</g>
<g>
</g>
<g>
</g>
<g>
</g>
<g>
</g>
<g>
</g>
<g>
</g>
<g>
</g>
</svg>
